<?xml version="1.0" encoding="UTF-8"?>
<!DOCTYPE svg PUBLIC "-//W3C//DTD SVG 1.1//EN" "http://www.w3.org/Graphics/SVG/1.1/DTD/svg11.dtd">
<svg version="1.1" xmlns="http://www.w3.org/2000/svg" xmlns:xlink="http://www.w3.org/1999/xlink" width="60" height="60"  xml:space="preserve" id="shutterButton">
    <!-- Generated by PaintCode (www.paintcodeapp.com) -->
    <circle id="shutterButton-ring" stroke="none" fill="rgb(255, 255, 255)" cx="30" cy="30" r="30" />
    <path id="shutterButton-cameraGlyph" stroke="none" fill="rgb(255, 0, 0)" d="M 34,31 C 34,33.21 32.21,35 30,35 27.79,35 26,33.21 26,31 26,28.93 27.57,27.23 29.58,27.02 29.72,27.01 29.86,27 30,27 32.21,27 34,28.79 34,31 Z M 30,25 C 29.68,25 29.36,25.03 29.05,25.08 28.69,25.13 28.35,25.22 28.01,25.34 25.68,26.16 24,28.38 24,31 24,34.31 26.69,37 30,37 33.31,37 36,34.31 36,31 36,27.69 33.31,25 30,25 Z M 37.99,19.2 L 38.11,19.22 C 38.88,19.51 39.49,20.12 39.78,20.89 39.89,21.25 39.94,21.59 39.97,22 L 41.41,22 C 42.73,22 43.39,22 43.99,22.2 L 44.11,22.22 C 44.88,22.51 45.49,23.12 45.78,23.89 46,24.61 46,25.27 46,26.59 L 46,35.41 C 46,36.73 46,37.39 45.8,37.99 L 45.78,38.11 C 45.49,38.88 44.88,39.49 44.11,39.78 43.39,40 42.73,40 41.41,40 L 18.59,40 C 17.27,40 16.61,40 16.01,39.8 L 15.89,39.78 C 15.12,39.49 14.51,38.88 14.22,38.11 14,37.39 14,36.73 14,35.41 L 14,26.59 C 14,25.27 14,24.61 14.2,24.01 L 14.22,23.89 C 14.51,23.12 15.12,22.51 15.89,22.22 16.61,22 17.27,22 18.59,22 L 20.03,22 C 20.05,21.61 20.1,21.3 20.2,21.01 L 20.22,20.89 C 20.51,20.12 21.12,19.51 21.89,19.22 22.61,19 23.27,19 24.59,19 L 35.41,19 C 36.73,19 37.39,19 37.99,19.2 Z M 37.99,19.2" />
</svg>
